<svg width="1000" height="1000" viewBox="0 0 1000 1000" fill="none" xmlns="http://www.w3.org/2000/svg">
<g clip-path="url(#clip0_76_1537)">
<mask id="mask0_76_1537" style="mask-type:luminance" maskUnits="userSpaceOnUse" x="0" y="0" width="1000" height="1000">
<path d="M830.078 0H169.922C76.0766 0 0 76.0766 0 169.922V830.078C0 923.923 76.0766 1000 169.922 1000H830.078C923.923 1000 1000 923.923 1000 830.078V169.922C1000 76.0766 923.923 0 830.078 0Z" fill="white"/>
</mask>
<g mask="url(#mask0_76_1537)">
<path d="M830.078 0H169.922C76.0766 0 0 76.0766 0 169.922V830.078C0 923.923 76.0766 1000 169.922 1000H830.078C923.923 1000 1000 923.923 1000 830.078V169.922C1000 76.0766 923.923 0 830.078 0Z" fill="#494BCB"/>
<path fill-rule="evenodd" clip-rule="evenodd" d="M380.781 176.433H830.004L626.623 399.646L826.104 598.544L620.59 824.086L170.004 823.971L374.238 599.823L175.545 401.725L380.781 176.433ZM410.913 636.39L287.815 771.49L546.481 771.554L410.913 636.39ZM608.644 760.375L445.84 598.057L591.698 437.977L754.502 600.307L608.644 760.375ZM555.023 401.411L409.163 561.492L247.144 399.957L392.994 239.852L555.023 401.411ZM589.95 363.077L712.167 228.944H455.423L589.95 363.077Z" fill="white"/>
</g>
</g>
<defs>
<clipPath id="clip0_76_1537">
<rect width="1000" height="1000" fill="white"/>
</clipPath>
</defs>
</svg>
